Coordinates
version=1
nRows=8
nColumns=63
inDegrees=yes

Units are S.I. units (second, meters, Newtons, ...)
If the header above contains a line with 'inDegrees', this indicates whether rotational values are in degrees (yes) or radians (no).

endheader
time	pelvis_tilt	pelvis_list	pelvis_rotation	pelvis_tx	pelvis_ty	pelvis_tz	hip_flexion_r	hip_adduction_r	hip_rotation_r	knee_angle_r	knee_angle_r_beta	ankle_angle_r	subtalar_angle_r	mtp_angle_r	hip_flexion_l	hip_adduction_l	hip_rotation_l	knee_angle_l	knee_angle_l_beta	ankle_angle_l	subtalar_angle_l	mtp_angle_l	L5_S1_Flex_Ext	L5_S1_Lat_Bending	L5_S1_axial_rotation	L4_L5_Flex_Ext	L4_L5_Lat_Bending	L4_L5_axial_rotation	L3_L4_Flex_Ext	L3_L4_Lat_Bending	L3_L4_axial_rotation	L2_L3_Flex_Ext	L2_L3_Lat_Bending	L2_L3_axial_rotation	L1_L2_Flex_Ext	L1_L2_Lat_Bending	L1_L2_axial_rotation	L1_T12_Flex_Ext	L1_T12_Lat_Bending	L1_T12_axial_rotation	Abs_r3	Abs_r2	Abs_r1	Abs_t1	Abs_t2	neck_flexion	neck_bending	neck_rotation	arm_flex_r	arm_add_r	arm_rot_r	elbow_flex_r	pro_sup_r	wrist_flex_r	wrist_dev_r	arm_flex_l	arm_add_l	arm_rot_l	elbow_flex_l	pro_sup_l	wrist_flex_l	wrist_dev_l
3.116667	-0.752329	-5.480197	88.566114	0.239900	0.981426	0.541839	2.160471	0.649241	-4.457292	11.143983	0.194499	32.060294	8.459215	0.000000	2.662046	-0.759450	-4.952712	13.222140	0.230770	32.314419	-1.799091	0.000000	-0.155219	-0.585600	0.526982	-0.288257	-0.778847	0.559919	-0.255009	-1.423827	0.559919	-0.177400	-1.423827	0.461109	-0.144136	-1.194155	0.428173	-0.088692	-0.907094	0.395237	-1.108713	-6.624419	2.930917	0.000000	0.000000	11.435792	5.160086	10.474766	16.177581	-2.433522	91.606785	29.934587	39.649483	2.560021	0.598586	6.291873	-6.380296	39.342738	43.262074	83.269513	14.936434	11.862460
3.133333	-0.762445	-5.461252	88.385378	0.239868	0.981549	0.542032	2.320155	0.637485	-4.274882	11.352780	0.198143	32.183239	8.292076	0.000000	2.628534	-0.824808	-5.450457	13.214996	0.230645	32.548202	-1.163841	0.000000	-0.158725	-0.581632	0.562674	-0.294768	-0.773571	0.597841	-0.260769	-1.414181	0.597841	-0.181407	-1.414181	0.492340	-0.147392	-1.186065	0.457173	-0.090695	-0.900949	0.422006	-1.133755	-6.579543	3.129424	0.000000	0.000000	11.598800	5.247202	10.269110	16.162997	-2.603041	91.327195	30.011585	38.964883	2.545925	0.285112	6.519176	-6.335268	39.693959	43.023609	83.267146	14.936795	11.416287
3.150000	-0.777214	-5.448438	88.244885	0.239741	0.981608	0.542195	2.465283	0.612808	-4.152771	11.540622	0.201422	32.299821	8.198628	0.000000	2.604827	-0.870841	-5.837476	13.207663	0.230517	32.817490	-0.571870	0.000000	-0.163830	-0.578538	0.582926	-0.304248	-0.769456	0.619359	-0.269156	-1.406658	0.619359	-0.187241	-1.406658	0.510060	-0.152132	-1.179755	0.473627	-0.093612	-0.896156	0.437194	-1.170219	-6.544542	3.242058	0.000000	0.000000	11.808728	5.292292	10.079796	16.116842	-2.774380	90.960438	30.131937	37.994650	2.552540	0.009682	6.672411	-6.294564	39.864779	42.880025	83.348441	14.977255	11.001605
3.166667	-0.789470	-5.446285	88.168959	0.239487	0.981596	0.542321	2.594029	0.586907	-4.061337	11.695603	0.204127	32.395134	8.105938	0.000000	2.601141	-0.893533	-6.000028	13.205964	0.230488	33.083943	-0.162816	0.000000	-0.168714	-0.575242	0.575382	-0.313319	-0.765072	0.611343	-0.277181	-1.398643	0.611343	-0.192824	-1.398643	0.503459	-0.156668	-1.173033	0.467498	-0.096403	-0.891050	0.431536	-1.205110	-6.507251	3.200100	0.000000	0.000000	12.045999	5.293684	9.962873	16.093023	-2.917042	90.745817	30.267121	36.669010	2.564653	-0.265146	6.716731	-6.254182	39.775860	42.839898	83.513976	15.072168	10.642793
3.183333	-0.801615	-5.445281	88.121456	0.239145	0.981537	0.542394	2.699495	0.556750	-3.972930	11.820671	0.206310	32.469897	8.014812	0.000000	2.600040	-0.892834	-5.998571	13.201188	0.230404	33.342669	0.093209	0.000000	-0.173753	-0.572049	0.547881	-0.322677	-0.760825	0.582124	-0.285459	-1.390880	0.582124	-0.198583	-1.390880	0.479396	-0.161347	-1.166522	0.445154	-0.099283	-0.886104	0.410911	-1.241103	-6.471134	3.047151	0.000000	0.000000	12.306140	5.255853	9.907434	16.071408	-3.029591	90.611424	30.389419	35.232461	2.600945	-0.583595	6.657552	-6.215748	39.491380	42.884066	83.700768	15.120429	10.299735
3.200000	-0.799840	-5.452618	88.146981	0.238696	0.981435	0.542388	2.771905	0.542339	-3.903953	11.885334	0.207438	32.502055	7.873030	0.000000	2.616697	-0.893919	-5.905059	13.205636	0.230482	33.611072	0.328992	0.000000	-0.176714	-0.567634	0.492321	-0.328176	-0.754953	0.523091	-0.290324	-1.380145	0.523091	-0.201967	-1.380145	0.430781	-0.164097	-1.157519	0.400011	-0.100974	-0.879265	0.369241	-1.262252	-6.421187	2.738142	0.000000	0.000000	12.552373	5.184738	9.928323	16.030396	-3.119792	90.489288	30.528780	33.610099	2.597005	-0.840709	6.515797	-6.219422	39.178649	43.033300	83.680824	14.975412	10.042399
3.216667	-0.786632	-5.457048	88.202421	0.238158	0.981328	0.542305	2.810887	0.537398	-3.827567	11.905860	0.207796	32.508821	7.695644	0.000000	2.625782	-0.880919	-5.647468	13.195406	0.230303	33.840947	0.377850	0.000000	-0.178534	-0.562080	0.419355	-0.331555	-0.747567	0.445565	-0.293313	-1.366642	0.445565	-0.204046	-1.366642	0.366936	-0.165787	-1.146194	0.340726	-0.102014	-0.870662	0.314517	-1.275250	-6.358364	2.332329	0.000000	0.000000	12.763229	5.114223	10.019717	15.989102	-3.189602	90.439684	30.652796	31.862460	2.625764	-1.058836	6.309180	-6.217541	38.781748	43.182322	83.615450	14.806154	9.768436
3.233333	-0.754849	-5.446932	88.262697	0.237583	0.981250	0.542147	2.808552	0.548553	-3.752730	11.887721	0.207480	32.498436	7.525753	0.000000	2.610042	-0.865457	-5.291957	13.166306	0.229795	34.022775	0.257664	0.000000	-0.180233	-0.554713	0.335229	-0.334711	-0.737769	0.356181	-0.296105	-1.348730	0.356181	-0.205989	-1.348730	0.293325	-0.167365	-1.131172	0.272373	-0.102985	-0.859251	0.251422	-1.287389	-6.275030	1.864442	0.000000	0.000000	12.893624	5.078731	10.212995	15.955706	-3.239189	90.480740	30.743925	30.163021	2.679364	-1.264553	6.076151	-6.224016	38.405223	43.311941	83.495610	14.612618	9.472415
